<?xml version="1.0" encoding="utf-8"?>
<!-- Generator: Adobe Illustrator 18.1.1, SVG Export Plug-In . SVG Version: 6.00 Build 0)  -->
<svg version="1.1" id="Layer_1" xmlns="http://www.w3.org/2000/svg" xmlns:xlink="http://www.w3.org/1999/xlink" x="0px" y="0px"
	 viewBox="0 0 145.5 141.2" enable-background="new 0 0 145.5 141.2" xml:space="preserve">
<path fill="#D99A63" d="M8.8,245.3c6.4,0,12.7-0.1,19.1-0.1c4.9,0,10.3,0.4,15-1.1c4.5-1.5,7.2-4.7,9.5-8.7
	c3.2-5.3,6.2-10.7,9.3-16.1c-2.7-0.4-5.5-0.7-8.2-1.1c5.2,14.2,11.1,28,17.8,41.5c1.8,3.5,7.3,2.5,8.2-1.1c1-3.9,2-7.8,3.1-11.7
	c0.3-1.2,0.7-5.6,1.7-6.3c-1.1,0.8,2.8,0.2,3.4,0.2c8.4,0.2,16.8,0.4,25.2,0.5c5.8,0.1,5.8-8.9,0-9c-5.5-0.1-11-0.2-16.5-0.4
	c-4.7-0.1-10.9-1.3-15.5,0.1c-3.8,1.1-4.8,4.5-5.8,7.9c-1.4,5.4-2.8,10.8-4.3,16.2c2.7-0.4,5.5-0.7,8.2-1.1
	c-6.4-12.8-12-25.9-16.9-39.3c-1.3-3.5-6.2-4.6-8.2-1.1c-2.5,4.3-5,8.6-7.4,12.9c-2.4,4.1-3.9,7.8-9,8.4c-9.3,1.1-19.3,0.2-28.7,0.3
	C3,236.4,3,245.4,8.8,245.3"/>
<path fill="#D99A63" d="M109.2,282.4c10,11.2,19.6,22.8,28.9,34.7c3.5,4.6,9.9-1.8,6.4-6.4c-9.2-11.9-18.9-23.5-28.9-34.7
	C111.7,271.7,105.4,278,109.2,282.4"/>
<path fill="#D99A63" d="M130.5,228.4c-0.3,22.2-14.2,42.7-35.5,50c-20.9,7.2-44.3,0.6-58.4-16.4c-14.1-17-15.8-41.8-4.6-60.7
	c11.2-18.8,33.6-29.1,55.2-25C112.2,181.2,130.2,203.1,130.5,228.4c0.1,5.8,9.1,5.8,9,0c-0.3-25.9-16.4-49.2-40.8-58.2
	c-24.2-8.9-52.5-1.1-68.8,18.8c-16.4,20-18.8,48.8-5.6,71.1c13.4,22.4,39.8,34,65.4,29.1c28.9-5.6,49.5-31.7,49.8-60.7
	C139.5,222.6,130.5,222.6,130.5,228.4"/>
<path fill="#D99A63" d="M25.9,420.5c28.4-1.5,56.9-2.8,85.4-3.7c6.4-0.2,6.4-10.1,0-9.9c-28.5,0.9-56.9,2.1-85.4,3.7
	C19.5,410.9,19.5,420.8,25.9,420.5"/>
<path fill="#D99A63" d="M25.9,398.3c33.4-0.4,66.8-0.9,100.2-1.3c6.4-0.1,6.4-10,0-9.9c-33.4,0.4-66.8,0.9-100.2,1.3
	C19.5,388.5,19.5,398.4,25.9,398.3"/>
<path fill="#D99A63" d="M25.9,439.7c26.8,0.4,53.6,0.3,80.4-0.3c6.4-0.1,6.4-10.1,0-9.9c-26.8,0.6-53.6,0.7-80.4,0.3
	C19.5,429.7,19.5,439.6,25.9,439.7"/>
<path fill="#D99A63" d="M25.9,482.4c17.7-0.4,35.5-0.9,53.2-1.3c6.4-0.2,6.4-10.1,0-9.9c-17.7,0.4-35.5,0.9-53.2,1.3
	C19.5,472.6,19.5,482.5,25.9,482.4"/>
<path fill="#D99A63" d="M25.9,460.7h59.4c6.4,0,6.4-9.9,0-9.9H25.9C19.5,450.8,19.5,460.7,25.9,460.7"/>
<path fill="#D99A63" d="M25.9,502.7h26c6.4,0,6.4-9.9,0-9.9h-26C19.5,492.8,19.5,502.7,25.9,502.7"/>
<path fill="#D99A63" d="M19.7,83.6c25.7-4,51.5-5.5,77.5-4.1c5.7,0.3,11-6.1,6.8-11.3C93.5,55.2,81,45,66.1,37.4
	c-7.3-3.8-13.4,7.2-7.3,12.2c12,9.8,23.8,19.9,35.2,30.4c0.6-4.1,1.3-8.2,1.9-12.3C79,72.8,63.3,80.3,48.5,90
	c-7.7,5.1,0.8,16.6,8.4,11.6C70.7,92.5,85.3,85.8,101,81c5.6-1.7,5.5-8.9,1.9-12.3C91.5,58.3,79.8,48.1,67.7,38.4
	c-2.4,4.1-4.8,8.1-7.3,12.2C73,57,83.6,65.7,92.5,76.6c2.3-3.8,4.5-7.5,6.8-11.3C72.1,64,45,65.2,18.1,69.4
	C9,70.8,10.6,85.1,19.7,83.6"/>
<path fill="#D99A63" d="M132.3,71.3c-0.3,24.7-15.6,47.3-39,55.8c-23.3,8.5-50,1.3-65.9-17.6C11.3,90.4,9.1,62.4,21.8,41
	C34.5,19.6,60,8.2,84.4,13C112.1,18.5,132,43.2,132.3,71.3c0,3.9,6,3.9,6,0C138,44.1,121.1,19.5,95.5,9.9
	C69.8,0.3,39.7,8.6,22.3,29.9C5.2,50.9,2.7,81.3,16.7,104.7c14,23.5,41.8,35.9,68.6,30.8c30.7-5.8,52.7-33.3,53-64.2
	C138.3,67.4,132.3,67.4,132.3,71.3"/>
</svg>
