<?xml version="1.0" encoding="utf-8"?>
<!-- Generator: Adobe Illustrator 18.1.1, SVG Export Plug-In . SVG Version: 6.00 Build 0)  -->
<svg version="1.1" id="Layer_1" xmlns="http://www.w3.org/2000/svg" xmlns:xlink="http://www.w3.org/1999/xlink" x="0px" y="0px"
	 viewBox="0 0 123 134.5" enable-background="new 0 0 123 134.5" xml:space="preserve">
<path fill="#D99A63" d="M-2.7-133.7c6.4,0,12.7-0.1,19.1-0.1c4.9,0,10.3,0.4,15-1.1c4.5-1.5,7.2-4.7,9.5-8.7
	c3.2-5.3,6.2-10.7,9.3-16.1c-2.7-0.4-5.5-0.7-8.2-1.1c5.2,14.2,11.1,28,17.8,41.5c1.8,3.5,7.3,2.5,8.2-1.1c1-3.9,2-7.8,3.1-11.7
	c0.3-1.2,0.7-5.6,1.7-6.3c-1.1,0.8,2.8,0.2,3.4,0.2c8.4,0.2,16.8,0.4,25.2,0.5c5.8,0.1,5.8-8.9,0-9c-5.5-0.1-11-0.2-16.5-0.4
	c-4.7-0.1-10.9-1.3-15.5,0.1c-3.8,1.1-4.8,4.5-5.8,7.9c-1.4,5.4-2.8,10.8-4.3,16.2c2.7-0.4,5.5-0.7,8.2-1.1
	c-6.4-12.8-12-25.9-16.9-39.3c-1.3-3.5-6.2-4.6-8.2-1.1c-2.5,4.3-5,8.6-7.4,12.9c-2.4,4.1-3.9,7.8-9,8.4c-9.3,1.1-19.3,0.2-28.7,0.3
	C-8.5-142.7-8.5-133.7-2.7-133.7"/>
<path fill="#D99A63" d="M97.7-96.7c10,11.2,19.6,22.8,28.9,34.7c3.5,4.6,9.9-1.8,6.4-6.4c-9.2-11.9-18.9-23.5-28.9-34.7
	C100.2-107.4,93.9-101,97.7-96.7"/>
<path fill="#D99A63" d="M119-150.6c-0.3,22.2-14.2,42.7-35.5,50C62.6-93.5,39.2-100,25.1-117c-14.1-17-15.8-41.8-4.6-60.7
	c11.2-18.8,33.6-29.1,55.2-25C100.8-197.9,118.7-175.9,119-150.6c0.1,5.8,9.1,5.8,9,0c-0.3-25.9-16.4-49.2-40.8-58.2
	c-24.2-8.9-52.5-1.1-68.8,18.8c-16.4,20-18.8,48.8-5.6,71.1c13.4,22.4,39.8,34,65.4,29.1c28.9-5.6,49.5-31.7,49.8-60.7
	C128-156.4,119-156.4,119-150.6"/>
<path fill="#D99A63" d="M14.4,41.4c28.4-1.5,56.9-2.8,85.4-3.7c6.4-0.2,6.4-10.1,0-9.9c-28.5,0.9-56.9,2.1-85.4,3.7
	C8.1,31.9,8,41.8,14.4,41.4"/>
<path fill="#D99A63" d="M14.4,19.2c33.4-0.4,66.8-0.9,100.2-1.3c6.4-0.1,6.4-10,0-9.9C81.2,8.4,47.8,8.9,14.4,9.3
	C8,9.4,8,19.3,14.4,19.2"/>
<path fill="#D99A63" d="M14.4,60.6C41.2,61,68,60.9,94.8,60.4c6.4-0.1,6.4-10.1,0-9.9C68,51,41.2,51.1,14.4,50.7
	C8,50.6,8,60.5,14.4,60.6"/>
<path fill="#D99A63" d="M14.4,103.3c17.7-0.4,35.5-0.9,53.2-1.3c6.4-0.2,6.4-10.1,0-9.9c-17.7,0.4-35.5,0.9-53.2,1.3
	C8,93.6,8,103.5,14.4,103.3"/>
<path fill="#D99A63" d="M14.4,81.6h59.4c6.4,0,6.4-9.9,0-9.9H14.4C8,71.7,8,81.6,14.4,81.6"/>
<path fill="#D99A63" d="M14.4,123.7h26c6.4,0,6.4-9.9,0-9.9h-26C8,113.7,8,123.7,14.4,123.7"/>
<path fill="#D99A63" d="M8.2-295.4c25.7-4,51.5-5.5,77.5-4.1c5.7,0.3,11-6.1,6.8-11.3c-10.5-13.1-23-23.2-38-30.9
	c-7.3-3.8-13.4,7.2-7.3,12.2c12,9.8,23.8,19.9,35.2,30.4c0.6-4.1,1.3-8.2,1.9-12.3c-16.9,5.1-32.6,12.6-47.3,22.3
	c-7.7,5.1,0.8,16.6,8.4,11.6c13.7-9.1,28.3-15.8,44.1-20.6c5.6-1.7,5.5-8.9,1.9-12.3c-11.4-10.5-23.1-20.6-35.2-30.4
	c-2.4,4.1-4.8,8.1-7.3,12.2c12.6,6.5,23.1,15.1,32,26.1c2.3-3.8,4.5-7.5,6.8-11.3c-27.2-1.4-54.3-0.1-81.2,4.1
	C-2.5-308.2-0.9-294,8.2-295.4"/>
<path fill="#D99A63" d="M120.8-307.8c-0.3,24.7-15.6,47.3-39,55.8c-23.3,8.5-50,1.3-65.9-17.6c-16.1-19.1-18.3-47.1-5.6-68.5
	c12.7-21.3,38.1-32.8,62.5-27.9C100.6-360.5,120.5-335.9,120.8-307.8c0,3.9,6,3.9,6,0c-0.3-27.2-17.2-51.8-42.8-61.4
	c-25.8-9.6-55.9-1.4-73.2,19.9c-17.1,21.1-19.6,51.4-5.7,74.8c14,23.5,41.8,35.9,68.6,30.8c30.7-5.8,52.7-33.3,53-64.2
	C126.9-311.6,120.9-311.6,120.8-307.8"/>
</svg>
